# xmcd CD database file
#
# Track frame offsets:
#	150
#	14770
#	32951
#	44681
#	52322
#	61228
#	75587
#	85508
#	98868
#	110883
#	123944
#	134825
#	148755
#	164117
#	175504
#
# Disc length: 2512 seconds
#
# Revision: 4
# Processed by: cddbd v1.5.2PL0 Copyright (c) Steve Scherf et al.
# Submitted via: CDex 1.70beta2
#
DISCID=e009ce0f
DTITLE=Various Artist - Just Country CD 1
DYEAR=1997
DGENRE=Country
TTITLE0=Highwaymen - The Devil's Right Hand
TTITLE1=James Reyne and James Blundell - Way Out West
TTITLE2=Wanda Jackson - Cold, Cold Heart
TTITLE3=Johnny Cash - Come In Stranger
TTITLE4=Faron Young - Goin' Steady
TTITLE5=Tex Ritter - Streets Of Laredo
TTITLE6=Billy Crash Craddock - Rub It In
TTITLE7=Billy Dean - The Mountain Moved
TTITLE8=Crystal Gayle - Don't It Make Your Brown Eyes Blue
TTITLE9=Ray Stevens - Misty
TTITLE10=George Jones - Ain't It Funny What A Fool Will Do
TTITLE11=Tennessee Ernie Ford - Mule Train
TTITLE12=Clint Beattie - My Love Will Follow You
TTITLE13=Chris LeDoux - Under This Old Hat
TTITLE14=Willie Nelson - Crazy
EXTD=YEAR: 1997
EXTT0=
EXTT1=
EXTT2=
EXTT3=
EXTT4=
EXTT5=
EXTT6=
EXTT7=
EXTT8=
EXTT9=
EXTT10=
EXTT11=
EXTT12=
EXTT13=
EXTT14=
PLAYORDER=
